{"title":"Raw Deal (1986) BRrip 720p x264 Dual Audio [Eng-Hindi] XdesiArse","uid":10796608,"size":1134061068,"categoryP":"video","categoryS":"hd___movies","magnet":"?xt=urn:btih:a16cedd79935b3517fa3931c41dbf3049703b438&amp;dn=Raw+Deal+%281986%29+BRrip+720p+x264+Dual+Audio+%5BEng-Hindi%5D+XdesiArse&amp;tr=udp%3A%2F%2Ftracker.openbittorrent.com%3A80&amp;tr=udp%3A%2F%2Fopen.demonii.com%3A1337&amp;tr=udp%3A%2F%2Ftracker.coppersurfer.tk%3A6969&amp;tr=udp%3A%2F%2Fexodus.desync.com%3A6969","seeders":1,"leechers":2,"uploader":"Xdesiars","files":2,"time":1408300552,"description":"Format                                   : Matroska\nFormat version                           : Version 2\nFile size                                : 1.06 GiB\nDuration                                 : 1h 45mn\nOverall bit rate                         : 1 432 Kbps\nMovie name                               : Raw Deal (1986) by XdesiArsenal [ExD-XMR]\nEncoded date                             : UTC 2014-08-17 15:58:35\nWriting application                      : mkvmerge v5.0.1 ('Es ist Sommer') built on Nov 23 2011 20:48:57\nWriting library                          : libebml v1.2.2 + libmatroska v1.3.0\n\nVideo\nID                                       : 1\nFormat                                   : AVC\nFormat/Info                              : Advanced Video Codec\nFormat profile                           : &lt;a class=&quot;__cf_email__&quot; href=&quot;/cdn-cgi/l/email-protection&quot; data-cfemail=&quot;014c60686f414d322f30&quot;&gt;[email&amp;#160;protected]&lt;/a&gt;&lt;script cf-hash='f9e31' type=&quot;text/javascript&quot;&gt;\n/* &lt;![CDATA[ */!function(){try{var t=&quot;currentScript&quot;in document?document.currentScript:function(){for(var t=document.getElementsByTagName(&quot;script&quot;),e=t.length;e--;)if(t[e].getAttribute(&quot;cf-hash&quot;))return t[e]}();if(t&amp;&amp;t.previousSibling){var e,r,n,i,c=t.previousSibling,a=c.getAttribute(&quot;data-cfemail&quot;);if(a){for(e=&quot;&quot;,r=parseInt(a.substr(0,2),16),n=2;a.length-n;n+=2)i=parseInt(a.substr(n,2),16)^r,e+=String.fromCharCode(i);e=document.createTextNode(e),c.parentNode.replaceChild(e,c)}}}catch(u){}}();/* ]]&gt; */&lt;/script&gt;\nFormat settings, CABAC                   : Yes\nFormat settings, ReFrames                : 4 frames\nMuxing mode                              : Header stripping\nCodec ID                                 : V_MPEG4/ISO/AVC\nBit rate                                 : 1 019 Kbps\nWidth                                    : 1 280 pixels\nHeight                                   : 544 pixels\nDisplay aspect ratio                     : 2.35:1\nFrame rate mode                          : Variable\nColor space                              : YUV\nChroma subsampling                       : 4:2:0\nBit depth                                : 8 bits\nScan type                                : Progressive\nTitle                                    : Raw Deal (1986) by XdesiArsenal [ExD-XMR]\nWriting library                          : x264 core 112\nLanguage                                 : English\nDefault                                  : No\nForced                                   : No\nColor primaries                          : BT.709\nTransfer characteristics                 : BT.709\nMatrix coefficients                      : BT.709\n\nAudio #1\nID                                       : 2\nFormat                                   : AC-3\nFormat/Info                              : Audio Coding 3\nMode extension                           : CM (complete main)\nFormat settings, Endianness              : Big\nMuxing mode                              : Header stripping\nCodec ID                                 : A_AC3\nDuration                                 : 1h 45mn\nBit rate mode                            : Constant\nBit rate                                 : 192 Kbps\nChannel(s)                               : 2 channels\nChannel positions                        : Front: L R\nSampling rate                            : 48.0 KHz\nBit depth                                : 16 bits\nCompression mode                         : Lossy\nDelay relative to video                  : 3s 700ms\nStream size                              : 145 MiB (13%)\nTitle                                    : XdesiArsenal\nLanguage                                 : Hindi\nDefault                                  : No\nForced                                   : No\n\nAudio #2\nID                                       : 3\nFormat                                   : AC-3\nFormat/Info                              : Audio Coding 3\nMode extension                           : CM (complete main)\nFormat settings, Endianness              : Big\nMuxing mode                              : Header stripping\nCodec ID                                 : A_AC3\nDuration                                 : 1h 45mn\nBit rate mode                            : Constant\nBit rate                                 : 192 Kbps\nChannel(s)                               : 2 channels\nChannel positions                        : Front: L R\nSampling rate                            : 48.0 KHz\nBit depth                                : 16 bits\nCompression mode                         : Lossy\nStream size                              : 145 MiB (13%)\nTitle                                    : XdesiArsenal\nLanguage                                 : English\nDefault                                  : No\nForced                                   : No\n","torrent":{"xt":"urn:btih:a16cedd79935b3517fa3931c41dbf3049703b438","amp;dn":"Raw+Deal+%281986%29+BRrip+720p+x264+Dual+Audio+%5BEng-Hindi%5D+XdesiArse","amp;tr":["udp%3A%2F%2Ftracker.openbittorrent.com%3A80","udp%3A%2F%2Fopen.demonii.com%3A1337","udp%3A%2F%2Ftracker.coppersurfer.tk%3A6969","udp%3A%2F%2Fexodus.desync.com%3A6969"],"infoHash":"a16cedd79935b3517fa3931c41dbf3049703b438","infoHashBuffer":{"type":"Buffer","data":[161,108,237,215,153,53,179,81,127,163,147,28,65,219,243,4,151,3,180,56]},"announce":[],"urlList":[]}}